#!OML:ASF H:\ManfredETheater\Project 1\Capture day 1\Session 1\subject.ASF
:FULLY-SPECIFIED
:DEGREES
228
root 2.20903 17.2335 -32.5958 201.727 -34.0283 -181.959
lowerback 35.653 0.860106 -3.73628
upperback 4.75842 -1.38886 0.528118
thorax -12.5337 -0.922386 3.23108
lowerneck -12.8018 -10.5063 -10.1224
upperneck -11.5132 -13.3366 21.7785
head 1.04361 -7.1101 7.49423
rclavicle -3.47873e-014 1.05356e-014
rhumerus -11.464 -4.8997 -86.4951
rradius 56.5728
rwrist -1.77082
rhand -27.0792 -4.00196
rfingers 7.12502
rthumb -0.496606 -33.9811
lclavicle -3.47873e-014 1.05356e-014
lhumerus -24.5743 -0.11929 82.3362
lradius 46.9688
lwrist -13.1568
lhand -31.3089 -7.25828
lfingers 7.12502
lthumb -4.58143 22.6722
rfemur -73.183 -17.3242 34.9645
rtibia 69.16
rfoot 3.92343 18.2507
rtoes -30.522
lfemur -67.7896 -5.5119 -21.9897
ltibia 85.5552
lfoot -15.8203 9.54447
ltoes 11.8268
229
root 2.18291 17.3165 -32.7026 201.804 -32.8338 -182.292
lowerback 35.6201 1.08914 -3.95309
upperback 4.59594 -1.19032 0.373014
thorax -12.7188 -0.813524 3.09891
lowerneck -13.0507 -10.5563 -10.2576
upperneck -11.1405 -13.3928 21.4745
head 1.17649 -7.08399 7.39048
rclavicle 1.55052e-014 6.14245e-014
rhumerus -11.5036 -4.98409 -86.7049
rradius 54.9228
rwrist -1.21279
rhand -27.0814 -3.83126
rfingers 7.12502
rthumb -0.498745 -33.8104
lclavicle 1.55052e-014 6.14245e-014
lhumerus -25.1836 -0.0970589 82.6976
lradius 47.1608
lwrist -13.2881
lhand -31.3924 -7.55781
lfingers 7.12502
lthumb -4.66202 22.3709
rfemur -72.506 -16.8052 32.9684
rtibia 70.1368
rfoot 2.0907 17.3677
rtoes -32.1821
lfemur -67.8874 -6.18922 -20.8791
ltibia 82.4228
lfoot -16.6209 7.65003
ltoes 8.70562
230
root 2.15614 17.3913 -32.8103 201.861 -31.6684 -182.641
lowerback 35.4954 1.30001 -4.13465
upperback 4.51382 -0.994936 0.218807
thorax -12.8931 -0.707709 2.96182
lowerneck -13.3127 -10.6157 -10.3988
upperneck -10.7326 -13.458 21.1387
head 1.31997 -7.05938 7.2756
rclavicle 1.19271e-015 -2.89232e-014
rhumerus -11.5105 -5.10404 -86.8498
rradius 53.2702
rwrist -0.704705
rhand -27.0807 -3.70583
rfingers 7.12502
rthumb -0.498062 -33.685
lclavicle 1.19271e-015 -2.89232e-014
lhumerus -25.7847 -0.0764044 83.0778
lradius 47.3573
lwrist -13.4945
lhand -31.4506 -7.89606
lfingers 7.12502
lthumb -4.71823 22.0314
rfemur -71.7053 -16.2437 30.8862
rtibia 70.9167
rfoot 0.35284 16.4236
rtoes -32.6744
lfemur -67.8494 -6.81525 -19.8281
ltibia 79.1326
lfoot -17.3985 5.22874
ltoes 5.12706
231
root 2.12793 17.4585 -32.9181 201.913 -30.5558 -182.999
lowerback 35.4132 1.47885 -4.25848
upperback 4.35966 -0.818173 0.0795366
thorax -13.0494 -0.612731 2.80492
lowerneck -13.5732 -10.6769 -10.5384
upperneck -10.3151 -13.5223 20.7764
head 1.46288 -7.035 7.15286
rclavicle -3.55825e-014 -3.96575e-014
rhumerus -11.4932 -5.27399 -86.9468
rradius 51.6389
rwrist -0.259361
rhand -27.0693 -3.59066
rfingers 7.12502
rthumb -0.487038 -33.5698
lclavicle -3.55825e-014 -3.96575e-014
lhumerus -26.3885 -0.0451961 83.4658
lradius 47.5901
lwrist -13.7069
lhand -31.4395 -8.30443
lfingers 7.12502
lthumb -4.70755 21.6233
rfemur -70.7816 -15.6716 28.7717
rtibia 71.3772
rfoot -1.30991 15.3401
rtoes -32.5736
lfemur -67.7081 -7.41955 -18.8428
ltibia 75.7234
lfoot -18.1378 2.30055
ltoes 1.38948
232
root 2.09728 17.5173 -33.0261 201.956 -29.5196 -183.342
lowerback 35.29 1.60298 -4.2888
upperback 4.20752 -0.668023 -0.0450141
thorax -13.187 -0.533139 2.62433
lowerneck -13.8288 -10.7301 -10.6781
upperneck -9.89648 -13.5723 20.3911
head 1.60088 -7.00545 7.02571
rclavicle 4.28878e-014 1.28216e-014
rhumerus -11.4699 -5.50263 -87.0085
rradius 50.06
rwrist 0.126233
rhand -27.0329 -3.47323
rfingers 7.12502
rthumb -0.451872 -33.4525
lclavicle 4.28878e-014 1.28216e-014
lhumerus -27.0123 0.0286685 83.8603
lradius 47.8902
lwrist -13.873
lhand -31.3398 -8.80681
lfingers 7.12502
lthumb -4.61128 21.123
rfemur -69.7309 -15.113 26.6967
rtibia 71.4291
rfoot -2.89569 13.8848
rtoes -32.0008
lfemur -67.497 -8.01719 -17.9092
ltibia 72.2524
lfoot -18.7391 -1.07334
ltoes -1.95202
233
root 2.06362 17.5679 -33.1354 201.975 -28.5592 -183.668
lowerback 35.1439 1.67518 -4.22807
upperback 4.05795 -0.544351 -0.158157
thorax -13.3117 -0.469252 2.41811
lowerneck -14.0639 -10.7714 -10.8024
upperneck -9.49226 -13.605 19.9855
head 1.72592 -6.97175 6.89413
rclavicle 2.97432e-014 3.13831e-014
rhumerus -11.4666 -5.80113 -87.043
rradius 48.5657
rwrist 0.457234
rhand -26.971 -3.34582
rfingers 7.12502
rthumb -0.392031 -33.3252
lclavicle 2.97432e-014 3.13831e-014
lhumerus -27.6751 0.132088 84.2555
lradius 48.2861
lwrist -13.9343
lhand -31.1459 -9.38745
lfingers 7.12502
lthumb -4.424 20.5463
rfemur -68.5214 -14.5844 24.6956
rtibia 71.0168
rfoot -4.35681 11.8053
rtoes -31.7551
lfemur -67.2016 -8.60475 -17.0479
ltibia 68.7845
lfoot -19.1133 -4.74796
ltoes -4.69268
234
root 2.02715 17.6091 -33.2477 201.942 -27.6701 -183.956
lowerback 35.0019 1.70435 -4.08079
upperback 3.90765 -0.439422 -0.255665
thorax -13.4379 -0.41749 2.19025
lowerneck -14.2637 -10.7955 -10.905
upperneck -9.10617 -13.6153 19.564
head 1.83416 -6.93216 6.75986
rclavicle 7.45443e-016 -4.3832e-014
rhumerus -11.5172 -6.16763 -87.0588
rradius 47.1894
rwrist 0.736942
rhand -26.9257 -3.18999
rfingers 7.12502
rthumb -0.348365 -33.1694
lclavicle 7.45443e-016 -4.3832e-014
lhumerus -28.4019 0.249953 84.6477
lradius 48.8053
lwrist -13.8659
lhand -30.869 -9.98953
lfingers 7.12502
lthumb -4.15659 19.9497
rfemur -67.1274 -14.0793 22.8143
rtibia 70.1234
rfoot -5.54828 8.8647
rtoes -31.1102
lfemur -66.8183 -9.1646 -16.2551
ltibia 65.3986
lfoot -19.0856 -8.53176
ltoes -6.50485
235
root 1.98865 17.6416 -33.3647 201.825 -26.8436 -184.19
lowerback 34.8895 1.70594 -3.86675
upperback 3.75778 -0.343061 -0.331105
thorax -13.5746 -0.372981 1.95403
lowerneck -14.4279 -10.7992 -10.9757
upperneck -8.72768 -13.601 19.1213
head 1.92737 -6.88494 6.61952
rclavicle -5.96354e-014 -8.84592e-015
rhumerus -11.6484 -6.574 -87.052
rradius 45.9585
rwrist 0.941566
rhand -26.8952 -3.03945
rfingers 7.12502
rthumb -0.318856 -33.019
lclavicle -5.96354e-014 -8.84592e-015
lhumerus -29.2102 0.363689 85.0344
lradius 49.4585
lwrist -13.6643
lhand -30.5515 -10.578
lfingers 7.12502
lthumb -3.85001 19.3669
rfemur -65.5126 -13.5862 21.0831
rtibia 68.7528
rfoot -6.21738 5.00139
rtoes -29.8628
lfemur -66.3236 -9.66706 -15.5471
ltibia 62.178
lfoot -18.5031 -12.1327
ltoes -7.3388
